<svg width="12" height="21" viewBox="0 0 12 21" fill="#8A8A8A" xmlns="http://www.w3.org/2000/svg">
<path d="M7.75 15.0833V5.91667H4.41667V15.0833H7.75ZM5.7875 6.87083C5.94167 6.71667 6.225 6.71667 6.37917 6.87083C6.45417 6.95 6.5 7.05833 6.5 7.16667C6.5 7.275 6.45417 7.38333 6.37917 7.4625C6.3 7.5375 6.19583 7.58333 6.08333 7.58333C5.975 7.58333 5.86667 7.5375 5.7875 7.4625C5.7125 7.38333 5.66667 7.275 5.66667 7.16667C5.66667 7.05417 5.7125 6.95 5.7875 6.87083ZM5.7875 8.5375C5.94167 8.38333 6.225 8.38333 6.37917 8.5375C6.45417 8.61667 6.5 8.725 6.5 8.83333C6.5 8.94167 6.45417 9.05 6.37917 9.12917C6.35833 9.14583 6.3375 9.1625 6.31667 9.17917C6.29167 9.19583 6.26667 9.20833 6.24167 9.21667C6.21667 9.22917 6.19167 9.2375 6.16667 9.24167C6.1375 9.24583 6.1125 9.25 6.08333 9.25C5.975 9.25 5.86667 9.20417 5.7875 9.12917C5.7125 9.05 5.66667 8.94583 5.66667 8.83333C5.66667 8.725 5.7125 8.61667 5.7875 8.5375ZM5.7875 10.2042C5.8875 10.1083 6.02917 10.0667 6.16667 10.0917C6.19167 10.0958 6.21667 10.1042 6.24167 10.1167C6.26667 10.125 6.29167 10.1375 6.31667 10.1542C6.3375 10.1667 6.35833 10.1875 6.37917 10.2042C6.45417 10.2833 6.5 10.3917 6.5 10.5C6.5 10.6083 6.45417 10.7167 6.37917 10.7958C6.3 10.8708 6.19583 10.9167 6.08333 10.9167C5.975 10.9167 5.86667 10.8708 5.7875 10.7958C5.75 10.7542 5.72083 10.7125 5.7 10.6583C5.67917 10.6083 5.66667 10.5542 5.66667 10.5C5.66667 10.3917 5.7125 10.2833 5.7875 10.2042ZM11.9167 18.4167V20.1792C11.6958 20.3792 11.4 20.5 11.0833 20.5C10.3958 20.5 9.83333 19.9375 9.83333 19.25C9.83333 18.9292 9.95833 18.6375 10.1583 18.4167H11.9167ZM11.9167 15.0833V14.25V5.5H9.83333C9.60417 5.5 9.41667 5.3125 9.41667 5.08333C9.41667 4.85417 9.60417 4.66667 9.83333 4.66667H11.9167V3.41667H9.83333C9.60417 3.41667 9.41667 3.22917 9.41667 3C9.41667 2.77083 9.60417 2.58333 9.83333 2.58333H11.9167V0.5H8.58333V15.0833H11.9167ZM0.25 6.75V15.0833H1.08333H1.5H2.33333H2.75H3.58333V6.75H0.25ZM1.53333 13.2583C1.55417 13.2042 1.58333 13.1625 1.62083 13.1208C1.6625 13.0833 1.70417 13.0542 1.75833 13.0333C1.83333 13 1.91667 12.9917 1.99583 13.0083C2.025 13.0125 2.05 13.0208 2.075 13.0333C2.1 13.0417 2.125 13.0542 2.14583 13.0708C2.17083 13.0833 2.19167 13.1042 2.2125 13.1208C2.2875 13.2 2.33333 13.3083 2.33333 13.4167C2.33333 13.4417 2.32917 13.4708 2.325 13.5C2.32083 13.525 2.3125 13.55 2.3 13.575C2.29167 13.6 2.27917 13.625 2.2625 13.65C2.24583 13.6708 2.22917 13.6917 2.2125 13.7125C2.19167 13.7292 2.17083 13.7458 2.14583 13.7625C2.125 13.7792 2.1 13.7917 2.075 13.8C2.05 13.8125 2.025 13.8208 1.99583 13.825C1.97083 13.8292 1.94167 13.8333 1.91667 13.8333C1.80833 13.8333 1.7 13.7875 1.62083 13.7125C1.54583 13.6333 1.5 13.5292 1.5 13.4167C1.5 13.3625 1.5125 13.3083 1.53333 13.2583Z" />
</svg>
